<?xml version="1.0" encoding="UTF-8" standalone="no"?>
<!-- Created with Inkscape (http://www.inkscape.org/) -->

<svg
   version="1.1"
   id="svg1"
   width="880"
   height="880"
   viewBox="0 0 880 880"
   sodipodi:docname="hand-raises-kettlebell.svg"
   inkscape:version="1.3.2 (091e20e, 2023-11-25, custom)"
   xmlns:inkscape="http://www.inkscape.org/namespaces/inkscape"
   xmlns:sodipodi="http://sodipodi.sourceforge.net/DTD/sodipodi-0.dtd"
   xmlns="http://www.w3.org/2000/svg"
   xmlns:svg="http://www.w3.org/2000/svg">
  <defs
     id="defs1">
    <clipPath
       clipPathUnits="userSpaceOnUse"
       id="clipPath4">
      <path
         d="M 0,660 H 660 V 0 H 0 Z"
         transform="translate(-347.38181,-529.25201)"
         id="path4" />
    </clipPath>
    <clipPath
       clipPathUnits="userSpaceOnUse"
       id="clipPath6">
      <path
         d="M 0,660 H 660 V 0 H 0 Z"
         transform="translate(-157.7046,-340.53561)"
         id="path6" />
    </clipPath>
    <clipPath
       clipPathUnits="userSpaceOnUse"
       id="clipPath8">
      <path
         d="M 0,660 H 660 V 0 H 0 Z"
         transform="translate(-431.12891,-416.35641)"
         id="path8" />
    </clipPath>
    <clipPath
       clipPathUnits="userSpaceOnUse"
       id="clipPath10">
      <path
         d="M 0,660 H 660 V 0 H 0 Z"
         transform="translate(-304.75491,-477.87011)"
         id="path10" />
    </clipPath>
    <clipPath
       clipPathUnits="userSpaceOnUse"
       id="clipPath12">
      <path
         d="M 0,660 H 660 V 0 H 0 Z"
         transform="translate(-341.59281,-481.85691)"
         id="path12" />
    </clipPath>
    <clipPath
       clipPathUnits="userSpaceOnUse"
       id="clipPath14">
      <path
         d="M 0,660 H 660 V 0 H 0 Z"
         transform="translate(-304.75491,-477.87011)"
         id="path14" />
    </clipPath>
    <clipPath
       clipPathUnits="userSpaceOnUse"
       id="clipPath16">
      <path
         d="M 0,660 H 660 V 0 H 0 Z"
         transform="translate(-465.45411,-439.91751)"
         id="path16" />
    </clipPath>
    <clipPath
       clipPathUnits="userSpaceOnUse"
       id="clipPath18">
      <path
         d="M 0,660 H 660 V 0 H 0 Z"
         transform="translate(-351.35741,-597.32621)"
         id="path18" />
    </clipPath>
    <clipPath
       clipPathUnits="userSpaceOnUse"
       id="clipPath20">
      <path
         d="M 0,660 H 660 V 0 H 0 Z"
         transform="translate(-325.90091,-596.74852)"
         id="path20" />
    </clipPath>
    <clipPath
       clipPathUnits="userSpaceOnUse"
       id="clipPath22">
      <path
         d="M 0,660 H 660 V 0 H 0 Z"
         transform="translate(-308.62061,-581.93651)"
         id="path22" />
    </clipPath>
    <clipPath
       clipPathUnits="userSpaceOnUse"
       id="clipPath24">
      <path
         d="M 0,660 H 660 V 0 H 0 Z"
         transform="translate(-279.52201,-571.67092)"
         id="path24" />
    </clipPath>
    <clipPath
       clipPathUnits="userSpaceOnUse"
       id="clipPath26">
      <path
         d="M 0,660 H 660 V 0 H 0 Z"
         transform="translate(-276.3604,-582.75151)"
         id="path26" />
    </clipPath>
    <clipPath
       clipPathUnits="userSpaceOnUse"
       id="clipPath28">
      <path
         d="M 0,660 H 660 V 0 H 0 Z"
         transform="translate(-246.47611,-569.96441)"
         id="path28" />
    </clipPath>
    <clipPath
       clipPathUnits="userSpaceOnUse"
       id="clipPath30">
      <path
         d="M 0,660 H 660 V 0 H 0 Z"
         transform="translate(-244.3462,-581.12011)"
         id="path30" />
    </clipPath>
    <clipPath
       clipPathUnits="userSpaceOnUse"
       id="clipPath32">
      <path
         d="M 0,660 H 660 V 0 H 0 Z"
         transform="translate(-218.83011,-563.77001)"
         id="path32" />
    </clipPath>
    <clipPath
       clipPathUnits="userSpaceOnUse"
       id="clipPath34">
      <path
         d="M 0,660 H 660 V 0 H 0 Z"
         transform="translate(-122.84961,-50.945304)"
         id="path34" />
    </clipPath>
    <clipPath
       clipPathUnits="userSpaceOnUse"
       id="clipPath36">
      <path
         d="M 0,660 H 660 V 0 H 0 Z"
         transform="translate(-274.23001,-50.945304)"
         id="path36" />
    </clipPath>
    <clipPath
       clipPathUnits="userSpaceOnUse"
       id="clipPath38">
      <path
         d="M 0,660 H 660 V 0 H 0 Z"
         transform="translate(-202.00441,-618.18902)"
         id="path38" />
    </clipPath>
  </defs>
  <sodipodi:namedview
     id="namedview1"
     pagecolor="#ffffff"
     bordercolor="#000000"
     borderopacity="0.25"
     inkscape:showpageshadow="2"
     inkscape:pageopacity="0.0"
     inkscape:pagecheckerboard="0"
     inkscape:deskcolor="#d1d1d1"
     inkscape:zoom="0.67272727"
     inkscape:cx="439.25676"
     inkscape:cy="440"
     inkscape:window-width="1440"
     inkscape:window-height="830"
     inkscape:window-x="-6"
     inkscape:window-y="-6"
     inkscape:window-maximized="1"
     inkscape:current-layer="g1">
    <inkscape:page
       x="0"
       y="0"
       inkscape:label="1"
       id="page1"
       width="880"
       height="880"
       margin="67.927063 159.06667 11.450666 163.8"
       bleed="0" />
  </sodipodi:namedview>
  <g
     id="g1"
     inkscape:groupmode="layer"
     inkscape:label="1">
    <g
       id="group-MC0">
      <path
         id="path2"
         d="M 0,0 6.142,73.322 -157.237,21.076 -75.729,-59.502 Z"
         style="fill:#de8254;fill-opacity:1;fill-rule:evenodd;stroke:none"
         transform="matrix(1.3333333,0,0,-1.3333333,461.34373,196.21747)" />
      <path
         id="path3"
         d="M 0,0 C 0.983,11.731 1.966,23.462 2.947,35.193 -36.098,29.75 -75.144,24.308 -114.192,18.864 c -10.726,-3.43 -21.452,-6.86 -32.179,-10.289 4.857,-9.287 9.715,-18.574 14.571,-27.861 0.128,0.254 0.255,0.511 0.382,0.765 4.715,4.62 9.43,9.238 14.145,13.857 C -94.626,5.877 -13.66,22.539 0,0"
         style="fill:#d17243;fill-opacity:1;fill-rule:evenodd;stroke:none"
         transform="matrix(1.3333333,0,0,-1.3333333,463.17573,174.33067)"
         clip-path="url(#clipPath4)" />
      <path
         id="path5"
         d="m 0,0 -13.47,140.186 c -2.455,25.54 4.083,49.944 17.391,69.883 13.33,19.973 33.406,35.402 57.997,42.954 20.097,6.167 39.472,11.161 58.409,15.032 18.939,3.872 38.719,6.883 59.624,9.097 25.578,2.707 50.098,-3.607 70.202,-16.742 20.066,-13.116 35.657,-33.001 43.425,-57.454 L 336.205,68.732 281.221,51.267 238.594,185.493 c -3.633,11.437 -10.844,20.681 -20.084,26.722 -9.209,6.018 -20.517,8.903 -32.382,7.648 -17.79,-1.885 -35.774,-4.682 -54.221,-8.453 -18.446,-3.771 -36.083,-8.257 -53.188,-13.507 -11.405,-3.5 -20.674,-10.593 -26.78,-19.743 -6.129,-9.182 -9.135,-20.514 -7.985,-32.458 L 57.424,5.516 Z"
         style="fill:#635854;fill-opacity:1;fill-rule:evenodd;stroke:none"
         transform="matrix(1.3333333,0,0,-1.3333333,210.2728,425.95253)"
         clip-path="url(#clipPath6)" />
      <path
         id="path7"
         d="m 0,0 -34.83,109.672 c -3.633,11.437 -10.844,20.682 -20.084,26.722 -9.209,6.019 -20.518,8.903 -32.382,7.648 -17.79,-1.885 -35.774,-4.682 -54.221,-8.453 -18.446,-3.771 -36.084,-8.256 -53.188,-13.506 -11.406,-3.501 -20.674,-10.594 -26.781,-19.744 -6.128,-9.182 -9.134,-20.514 -7.985,-32.458 l 11.006,-114.542 -21.582,-2.074 -10.447,108.709 c -5.123,47.991 8.508,72.929 58.462,87.498 30.406,8.869 60.251,13.727 91.528,18.713 51.613,8.226 75.599,-15.003 88.113,-57.536 L 20.665,6.562 Z"
         style="fill:#4d4441;fill-opacity:1;fill-rule:evenodd;stroke:none"
         transform="matrix(1.3333333,0,0,-1.3333333,574.83853,324.85813)"
         clip-path="url(#clipPath8)" />
      <path
         id="path9"
         d="m 0,0 c 106.347,21.741 210.184,-46.846 231.925,-153.192 6.982,-34.16 4.646,-68.057 -5.271,-99.056 -15.905,-49.736 -53.551,-84.793 -104.292,-97.118 -15.969,-3.879 -32.217,-7.515 -48.713,-10.887 -16.495,-3.374 -32.869,-6.404 -49.077,-9.104 -51.506,-8.578 -99.891,8.89 -134.04,48.393 -21.285,24.621 -36.74,54.881 -43.722,89.041 C -174.932,-125.577 -106.344,-21.741 0,0"
         style="fill:#403834;fill-opacity:1;fill-rule:evenodd;stroke:none"
         transform="matrix(1.3333333,0,0,-1.3333333,406.33987,242.83987)"
         clip-path="url(#clipPath10)" />
      <path
         id="path11"
         d="m 0,0 c 21.366,0.295 42.243,-2.909 61.954,-9.182 -23.623,3.21 -41.697,-5.053 -48.492,-33.97 z"
         style="fill:#1f1b18;fill-opacity:1;fill-rule:evenodd;stroke:none"
         transform="matrix(1.3333333,0,0,-1.3333333,455.45707,237.52413)"
         clip-path="url(#clipPath12)" />
      <path
         id="path13"
         d="M 0,0 C 18.968,3.878 37.852,4.867 56.206,3.296 L 54.392,-18.339 C 53.039,-34.472 48.025,-48.83 39.281,-61.569 27.982,-78.028 22.701,-95.189 22.786,-115.15 l 1.082,-254.32 c -51.242,-8.301 -99.343,9.185 -133.336,48.506 -15.58,18.023 -28.037,39.067 -36.334,62.45 l 39.394,197.783 C -79.288,-30.691 -42.689,-8.728 0,0"
         style="fill:#1f1b18;fill-opacity:1;fill-rule:evenodd;stroke:none"
         transform="matrix(1.3333333,0,0,-1.3333333,406.33987,242.83987)"
         clip-path="url(#clipPath14)" />
      <path
         id="path15"
         d="m 0,0 c 35.397,-27.753 61.511,-67.722 71.226,-115.24 6.982,-34.159 4.646,-68.056 -5.271,-99.055 -15.905,-49.737 -53.552,-84.793 -104.292,-97.119 -15.969,-3.878 -32.218,-7.514 -48.713,-10.886 -16.495,-3.374 -32.869,-6.405 -49.077,-9.105 -44.685,-7.44 -87.019,4.726 -119.746,33.871 24.041,-10.686 51.22,-14.009 79.701,-9.27 16.181,2.695 32.541,5.724 49.037,9.096 16.496,3.374 32.758,7.013 48.753,10.896 50.823,12.344 89.668,47.646 107.608,97.796 11.181,31.259 14.981,65.455 9.555,99.931 C 33.414,-54.99 19.664,-24.732 0,0"
         style="fill:#1f1b18;fill-opacity:1;fill-rule:evenodd;stroke:none"
         transform="matrix(1.3333333,0,0,-1.3333333,620.60547,293.44333)"
         clip-path="url(#clipPath16)" />
      <path
         id="path17"
         d="M 0,0 7.227,21.84 C 15.756,47.615 -24.139,52.688 -26.58,32.889 L -30.215,3.442 C -32.37,-14.051 -7.39,-22.332 0,0"
         style="fill:#f29d72;fill-opacity:1;fill-rule:evenodd;stroke:none"
         transform="matrix(1.3333333,0,0,-1.3333333,468.47653,83.565067)"
         clip-path="url(#clipPath18)" />
      <path
         id="path19"
         d="M 0,0 C 1.428,4.68 2.272,5.281 3.698,9.962 8.781,10.158 13.552,9.156 17.971,6.826 17.23,1.656 17.071,0.566 16.33,-4.602 10.109,-5.126 4.681,-3.551 0,0"
         style="fill:#e88069;fill-opacity:1;fill-rule:evenodd;stroke:none"
         transform="matrix(1.3333333,0,0,-1.3333333,434.53453,84.335333)"
         clip-path="url(#clipPath20)" />
      <path
         id="path21"
         d="m 0,0 5.866,47.413 c 2.951,23.868 -40.273,25.238 -40.223,2.755 l 0.104,-51.134 C -34.2,-25.98 -3.817,-30.865 0,0"
         style="fill:#f29d72;fill-opacity:1;fill-rule:evenodd;stroke:none"
         transform="matrix(1.3333333,0,0,-1.3333333,411.49413,104.08467)"
         clip-path="url(#clipPath22)" />
      <path
         id="path23"
         d="M 0,0 C 0.986,6.315 1.968,12.632 2.95,18.946 9.483,20.139 15.836,19.723 21.981,17.523 21.973,10.704 21.964,3.881 21.958,-2.94 14.013,-4.763 6.706,-3.726 0,0"
         style="fill:#e88069;fill-opacity:1;fill-rule:evenodd;stroke:none"
         transform="matrix(1.3333333,0,0,-1.3333333,372.696,117.77213)"
         clip-path="url(#clipPath24)" />
      <path
         id="path25"
         d="m 0,0 2.912,50.244 c 1.465,25.292 -44.067,23.765 -42.473,0.133 L -35.94,-3.366 C -34.168,-29.657 -1.896,-32.706 0,0"
         style="fill:#f29d72;fill-opacity:1;fill-rule:evenodd;stroke:none"
         transform="matrix(1.3333333,0,0,-1.3333333,368.48053,102.998)"
         clip-path="url(#clipPath26)" />
      <path
         id="path27"
         d="M 0,0 C 0.601,6.706 1.202,13.412 1.802,20.119 8.588,21.818 15.293,21.818 21.903,19.928 22.364,12.759 22.824,5.586 23.286,-1.585 15.056,-4.044 7.306,-3.458 0,0"
         style="fill:#e88069;fill-opacity:1;fill-rule:evenodd;stroke:none"
         transform="matrix(1.3333333,0,0,-1.3333333,328.6348,120.04747)"
         clip-path="url(#clipPath28)" />
      <path
         id="path29"
         d="M 0,0 -6.427,47.341 C -9.66,71.171 -51.806,61.468 -46.021,39.74 L -32.872,-9.673 C -26.44,-33.846 4.183,-30.817 0,0"
         style="fill:#f29d72;fill-opacity:1;fill-rule:evenodd;stroke:none"
         transform="matrix(1.3333333,0,0,-1.3333333,325.79493,105.1732)"
         clip-path="url(#clipPath30)" />
      <path
         id="path31"
         d="M 0,0 C -0.661,6.357 -1.321,12.714 -1.981,19.072 4.032,21.89 10.28,23.111 16.781,22.551 18.515,15.955 20.247,9.357 21.981,2.76 14.763,-1.029 7.434,-1.893 0,0"
         style="fill:#e88069;fill-opacity:1;fill-rule:evenodd;stroke:none"
         transform="matrix(1.3333333,0,0,-1.3333333,291.77347,128.30667)"
         clip-path="url(#clipPath32)" />
      <path
         id="path33"
         d="m 0,0 62.334,380.525 c -4.954,7.088 -9.911,14.177 -14.865,21.263 -27.542,39.387 -31.519,86.949 -10.902,130.365 2.365,4.978 4.729,9.958 7.094,14.934 3.74,7.875 10.065,13.177 18.47,15.483 11.105,3.049 22.212,6.099 33.319,9.146 1.574,0.432 3.086,0.229 4.489,-0.604 1.405,-0.832 2.309,-2.06 2.684,-3.65 1.53,-6.466 -0.439,-13.163 -5.465,-17.89 -6.154,-5.789 -12.313,-11.58 -18.47,-17.373 -0.647,-14.586 -1.293,-29.173 -1.94,-43.761 21.492,-4.584 39.91,-19.213 55.398,-43.417 27.116,15.232 57.663,20.239 91.012,16.871 -0.643,-13.69 -1.288,-27.379 -1.93,-41.069 -1.07,-22.758 -9.547,-41.982 -25.632,-58.117 -1.277,-1.284 -2.556,-2.566 -3.835,-3.848 L 203.788,0 Z"
         style="fill:#f29d72;fill-opacity:1;fill-rule:evenodd;stroke:none"
         transform="matrix(1.3333333,0,0,-1.3333333,163.79947,812.07293)"
         clip-path="url(#clipPath34)" />
      <path
         id="path35"
         d="m 0,0 8.844,353.844 -61.19,14.534 h 63.484 c 46.536,11.701 54.795,93.451 -0.575,88.983 19.112,5.374 39.57,6.717 61.215,4.531 -0.644,-13.69 -1.288,-27.379 -1.93,-41.069 C 68.778,398.065 60.3,378.841 44.215,362.706 42.938,361.422 41.659,360.14 40.38,358.858 44.318,263.269 48.259,110.662 52.194,0 Z"
         style="fill:#de8254;fill-opacity:1;fill-rule:evenodd;stroke:none"
         transform="matrix(1.3333333,0,0,-1.3333333,365.64,812.07293)"
         clip-path="url(#clipPath36)" />
      <path
         id="path37"
         d="m 0,0 16.295,4.473 c 0.712,0.194 1.411,0.259 2.093,0.196 l -0.096,-9.554 -13.04,-3.91 z"
         style="fill:#e88069;fill-opacity:1;fill-rule:evenodd;stroke:none"
         transform="matrix(1.3333333,0,0,-1.3333333,269.3392,55.748)"
         clip-path="url(#clipPath38)" />
    </g>
  </g>
</svg>
